<?xml version="1.0" encoding="UTF-8"?>
<svg id="Layer_1" data-name="Layer 1" xmlns="http://www.w3.org/2000/svg" version="1.1" viewBox="0 0 365.4 365.4">
  <defs>
    <style>
      .cls-1 {
        fill: #ee3d71;
      }

      .cls-1, .cls-2 {
        stroke-width: 0px;
      }

      .cls-2 {
        fill: #fff;
      }
    </style>
  </defs>
  <ellipse class="cls-2" cx="487" cy="258.7" rx="8.5" ry="0"/>
  <circle class="cls-1" cx="182.7" cy="182.7" r="181.3"/>
  <g>
    <path class="cls-2" d="M120.7,214.2c5.4-9.6,10.6-24.6-8.3-24.6s-13.7,14.9-8.4,24.5c-10-5.1-25.4-10.1-25.4,8.1s15.5,13.1,25.5,8c-5.3,9.6-10.6,24.6,8.3,24.6s13.6-15,8.2-24.6c10,5.2,25.6,10.3,25.6-7.9s-15.5-13.2-25.5-8Z"/>
    <path class="cls-2" d="M120.7,135.2c5.4-9.6,10.6-24.6-8.3-24.6s-13.7,14.9-8.4,24.5c-10-5.1-25.4-10.1-25.4,8.1s15.5,13.1,25.5,8c-5.3,9.6-10.6,24.6,8.3,24.6s13.6-15,8.2-24.6c10,5.2,25.6,10.3,25.6-7.9s-15.5-13.2-25.5-8Z"/>
  </g>
  <path class="cls-2" d="M359,138.7c-.4,0-.8,0-1.2,0-14.3,0-28.8.8-43-.4-23.1-1.9-41.9-12.7-55.3-31.7-22.4-31.7-52.1-52.1-90.1-60.4-11.3-2.5-22.8-3.4-34.3-2.9-4.1,44.7,22.2,113.6,93.2,140.3-29.1,11.1-52.5,29.1-69.6,54.8-17.2,25.7-25,54.1-24,85.7,8.6-.6,16.8-.7,24.8-1.8,41.3-5.9,74.2-25.7,98.3-59.8,12.1-17.2,28-28.4,48.7-32.6,5.8-1.2,11.8-1.6,17.7-1.7,11.4-.2,22.9-.1,34.5,0,3.8-14.5,5.8-29.8,5.8-45.5s-1.9-29.9-5.4-43.9Z"/>
</svg>