<?xml version="1.0" encoding="UTF-8"?>
<svg id="Layer_1" data-name="Layer 1" xmlns="http://www.w3.org/2000/svg" version="1.1" viewBox="0 0 292.2 292.2">
  <defs>
    <style>
      .cls-1 {
        fill: #ee3d71;
      }

      .cls-1, .cls-2 {
        stroke-width: 0px;
      }

      .cls-2 {
        fill: #fff;
      }
    </style>
  </defs>
  <rect class="cls-1" width="292.2" height="292.2" rx="49.8" ry="49.8"/>
  <path class="cls-2" d="M171,57c-1.1,42.2-20.9,71.6-59.5,89.3,36.4,16.1,60.2,50,59.2,90.4-28.9-2.5-54.2-9.7-73.7-32.7-8.6-10.1-15.4-20.3-28.3-25.6-14.3-5.9-31-3.7-46.1-3.7v-56.8c14.1,0,30,2,43.5-2.8,15-5.3,23.1-18.9,33.7-29.8,15.9-16.5,47.2-35.1,71.2-28.4Z"/>
  <path class="cls-2" d="M191.3,138.3c2.8-6.4,3.9-14.5-8-14.5s-10.6,8.1-7.6,14.5c-6.5-2.9-14.6-4.1-14.6,7.7s8,10.8,14.4,8.1c-2.8,6.4-3.9,14.3,7.8,14.3s10.8-7.9,8.1-14.3c6.4,2.7,14.3,3.6,14.3-8.1s-8-10.6-14.4-7.7Z"/>
  <path class="cls-2" d="M250.3,138.3c2.8-6.4,3.9-14.5-8-14.5s-10.6,8.1-7.6,14.5c-6.5-2.9-14.6-4.1-14.6,7.7s8,10.8,14.4,8.1c-2.8,6.4-3.9,14.3,7.8,14.3s10.8-7.9,8.1-14.3c6.4,2.7,14.3,3.6,14.3-8.1s-8-10.6-14.4-7.7Z"/>
</svg>